<?xml version="1.0" encoding="UTF-8"?>
<svg version="1.1" xmlns="http://www.w3.org/2000/svg" width="474" height="89">
<path d="M0 0 C156.42 0 312.84 0 474 0 C474 29.37 474 58.74 474 89 C317.58 89 161.16 89 0 89 C0 59.63 0 30.26 0 0 Z " fill="#FFFEFE" transform="translate(0,0)"/>
<path d="M0 0 C4.80205186 0.98302873 8.58388103 3.36994263 11.546875 7.2734375 C14.12267388 11.87178269 15.13540144 16.23272438 14.15625 21.44140625 C12.7944086 25.85731802 10.9234296 29.32821711 7.03125 31.94140625 C2.6831083 34.0730332 -2.11053223 34.18556846 -6.84375 33.44140625 C-7.50375 32.78140625 -8.16375 32.12140625 -8.84375 31.44140625 C-8.90433594 32.22386719 -8.96492187 33.00632813 -9.02734375 33.8125 C-9.11113281 34.82441406 -9.19492188 35.83632813 -9.28125 36.87890625 C-9.36246094 37.88824219 -9.44367188 38.89757813 -9.52734375 39.9375 C-9.84375 42.44140625 -9.84375 42.44140625 -10.84375 43.44140625 C-12.65625 43.57421875 -12.65625 43.57421875 -14.84375 43.56640625 C-15.565625 43.56898437 -16.2875 43.5715625 -17.03125 43.57421875 C-18.84375 43.44140625 -18.84375 43.44140625 -19.84375 42.44140625 C-19.93246273 39.41162821 -19.9589435 36.40473603 -19.94140625 33.375 C-19.9399913 32.46637711 -19.93857635 31.55775421 -19.93711853 30.62159729 C-19.93150193 27.70733404 -19.91894665 24.79314644 -19.90625 21.87890625 C-19.90123714 19.90820423 -19.89667386 17.93750101 -19.89257812 15.96679688 C-19.88152711 11.12497066 -19.86425138 6.2832013 -19.84375 1.44140625 C-13.0859375 1.25390625 -13.0859375 1.25390625 -10.90625 2.94140625 C-10.555625 3.43640625 -10.205 3.93140625 -9.84375 4.44140625 C-9.34875 3.78140625 -8.85375 3.12140625 -8.34375 2.44140625 C-5.50213202 0.16811187 -3.62157889 -0.20945699 0 0 Z " fill="#FF8467" transform="translate(166.84375,24.55859375)"/>
<path d="M0 0 C0.85142578 -0.020625 1.70285156 -0.04125 2.58007812 -0.0625 C8.64869403 -0.10004751 13.01609196 0.73323277 17.6875 4.9375 C19.78055529 9.23989142 19.31117682 13.75396954 17.8125 18.25 C18.555 19.301875 18.555 19.301875 19.3125 20.375 C21.45810389 24.48740746 21.13435207 27.85444373 19.8125 32.25 C17.24714804 35.49044458 15.725695 36.94560167 11.8125 38.25 C10.19736949 38.34278335 8.57872945 38.38068503 6.9609375 38.3828125 C6.02765625 38.38410156 5.094375 38.38539062 4.1328125 38.38671875 C3.16085937 38.38285156 2.18890625 38.37898438 1.1875 38.375 C0.2078125 38.37886719 -0.771875 38.38273437 -1.78125 38.38671875 C-2.71195312 38.38542969 -3.64265625 38.38414063 -4.6015625 38.3828125 C-5.88474365 38.38112061 -5.88474365 38.38112061 -7.19384766 38.37939453 C-9.1875 38.25 -9.1875 38.25 -10.1875 37.25 C-10.28845564 34.59543807 -10.32720998 31.96744824 -10.3203125 29.3125 C-10.32126923 28.517229 -10.32222595 27.72195801 -10.32321167 26.90258789 C-10.32389343 25.2179354 -10.32203943 23.53328029 -10.31787109 21.84863281 C-10.31252275 19.26100803 -10.31781619 16.67355684 -10.32421875 14.0859375 C-10.32355797 12.45312461 -10.3222768 10.82031184 -10.3203125 9.1875 C-10.32233673 8.40834229 -10.32436096 7.62918457 -10.32644653 6.82641602 C-10.29015093 -1.4346031 -7.29164149 0.04317774 0 0 Z " fill="#FF8568" transform="translate(306.1875,19.75)"/>
<path d="M0 0 C3.69121434 0.45330702 5.65880194 1.14973789 8.5625 3.4375 C8.5625 4.0975 8.5625 4.7575 8.5625 5.4375 C9.573125 4.6125 10.58375 3.7875 11.625 2.9375 C15.39149983 0.27209387 17.89955866 -0.32552676 22.5625 0.4375 C27.0135753 2.57744005 29.12686448 4.7026898 30.97363281 9.28198242 C32.14239906 13.56019022 31.90923378 17.91111319 31.8125 22.3125 C31.80734375 23.27414063 31.8021875 24.23578125 31.796875 25.2265625 C31.71714286 32.28285714 31.71714286 32.28285714 30.5625 33.4375 C28.75 33.5703125 28.75 33.5703125 26.5625 33.5625 C25.840625 33.56507812 25.11875 33.56765625 24.375 33.5703125 C22.5625 33.4375 22.5625 33.4375 21.5625 32.4375 C21.40563751 30.87801458 21.31173361 29.31207332 21.24609375 27.74609375 C21.20419922 26.80185547 21.16230469 25.85761719 21.11914062 24.88476562 C21.07982422 23.89154297 21.04050781 22.89832031 21 21.875 C20.95681641 20.87791016 20.91363281 19.88082031 20.86914062 18.85351562 C20.76269702 16.3816585 20.66068072 13.9096969 20.5625 11.4375 C18.56295254 11.39495644 16.56208364 11.39669217 14.5625 11.4375 C12.98245647 13.01754353 13.36156238 14.6843518 13.28125 16.875 C13.24386719 17.76960938 13.20648438 18.66421875 13.16796875 19.5859375 C13.13316406 20.52695312 13.09835938 21.46796875 13.0625 22.4375 C12.99391512 24.29183195 12.92122187 26.14601808 12.84375 28 C12.79831055 29.23943359 12.79831055 29.23943359 12.75195312 30.50390625 C12.5625 32.4375 12.5625 32.4375 11.5625 33.4375 C9.75 33.5703125 9.75 33.5703125 7.5625 33.5625 C6.840625 33.56507812 6.11875 33.56765625 5.375 33.5703125 C3.5625 33.4375 3.5625 33.4375 2.5625 32.4375 C2.40535346 30.80493242 2.31164586 29.16614662 2.24609375 27.52734375 C2.20419922 26.53798828 2.16230469 25.54863281 2.11914062 24.52929688 C2.07982422 23.48837891 2.04050781 22.44746094 2 21.375 C1.95681641 20.33021484 1.91363281 19.28542969 1.86914062 18.20898438 C1.76268775 15.61863116 1.6606724 13.02817814 1.5625 10.4375 C-2.76979715 11.2979139 -2.76979715 11.2979139 -6.4375 13.4375 C-6.59405027 14.92388992 -6.68816943 16.41699127 -6.75390625 17.91015625 C-6.79580078 18.80927734 -6.83769531 19.70839844 -6.88085938 20.63476562 C-6.93983398 22.05305664 -6.93983398 22.05305664 -7 23.5 C-7.04318359 24.44939453 -7.08636719 25.39878906 -7.13085938 26.37695312 C-7.23729276 28.73031353 -7.33931008 31.08378354 -7.4375 33.4375 C-13.58984375 33.53515625 -13.58984375 33.53515625 -15.4375 33.4375 C-16.4375 32.4375 -16.4375 32.4375 -16.55102539 29.47827148 C-16.54578857 28.18477783 -16.54055176 26.89128418 -16.53515625 25.55859375 C-16.5337413 24.8719313 -16.53232635 24.18526886 -16.53086853 23.47779846 C-16.52525479 21.27682199 -16.51270007 19.07594591 -16.5 16.875 C-16.49498676 15.38606917 -16.49042355 13.89713676 -16.48632812 12.40820312 C-16.47528093 8.75126925 -16.45800713 5.09439442 -16.4375 1.4375 C-13.0625 1.25 -13.0625 1.25 -9.4375 1.4375 C-8.7775 2.4275 -8.1175 3.4175 -7.4375 4.4375 C-6.921875 3.7775 -6.40625 3.1175 -5.875 2.4375 C-3.4375 0.4375 -3.4375 0.4375 0 0 Z " fill="#FF8568" transform="translate(109.4375,24.5625)"/>
<path d="M0 0 C3.375 2 3.375 2 6 4 C6.66 3.01 7.32 2.02 8 1 C9.9453125 0.70703125 9.9453125 0.70703125 12.125 0.8125 C13.40375 0.874375 14.6825 0.93625 16 1 C16.02465504 5.39656173 16.04283842 9.7930872 16.05493164 14.18969727 C16.05997121 15.68644918 16.06680287 17.18319616 16.07543945 18.67993164 C16.08752159 20.82699807 16.09323191 22.97399962 16.09765625 25.12109375 C16.10289307 26.4145874 16.10812988 27.70808105 16.11352539 29.04077148 C16 32 16 32 15 33 C12.32941149 33.14115161 9.67567762 33.04247107 7 33 C6.67 32.34 6.34 31.68 6 31 C5.44054687 31.32226562 4.88109375 31.64453125 4.3046875 31.9765625 C0.30390211 33.75318245 -3.71072934 33.54294565 -8 33 C-12.84534827 30.66705454 -15.7343461 27.87986993 -18 23 C-18.74393877 17.47359771 -18.74546846 12.70836523 -16.5 7.5625 C-11.93353327 2.8818716 -6.86561664 -1.34327282 0 0 Z " fill="#FF8669" transform="translate(349,25)"/>
<path d="M0 0 C2.5625 1.5625 2.5625 1.5625 4 3 C4.33 2.01 4.66 1.02 5 0 C7.33294775 -0.04241723 9.66702567 -0.04092937 12 0 C13.88319268 1.88319268 13.13054285 5.11930137 13.1328125 7.625 C13.13376923 8.28709473 13.13472595 8.94918945 13.13571167 9.63134766 C13.13639326 11.03352961 13.13454042 12.4357147 13.13037109 13.83789062 C13.12502246 15.99095713 13.1303167 18.14381502 13.13671875 20.296875 C13.13605796 21.65625046 13.13477679 23.0156258 13.1328125 24.375 C13.13168457 25.62023437 13.13055664 26.86546875 13.12939453 28.1484375 C13 31 13 31 12 32 C6.26388889 32.27314815 6.26388889 32.27314815 4 32 C3.34 31.34 2.68 30.68 2 30 C1.43023437 30.32226562 0.86046875 30.64453125 0.2734375 30.9765625 C-3.45191603 32.65361168 -6.99421553 32.55732653 -11 32 C-15.8325314 29.62932422 -18.76408623 26.90181096 -21 22 C-21.77896545 16.78898973 -22.26129852 11.5355556 -19.859375 6.70703125 C-14.41192508 -0.01626878 -8.34257326 -2.13709182 0 0 Z " fill="#FF8568" transform="translate(421,26)"/>
<path d="M0 0 C4.48949718 2.60006261 7.70081564 5.25945238 9.84765625 10.08984375 C10.61486945 15.3724263 10.65911258 20.30235989 8.09765625 25.08984375 C5.26481663 28.86696325 3.30062602 30.60552049 -1.15234375 32.08984375 C-5.98951087 32.47921324 -10.5501539 32.73753752 -15.08984375 30.90234375 C-19.07552688 27.39977372 -22.64809345 23.3147003 -23.48828125 17.94140625 C-23.60647065 11.20461019 -21.61046682 7.94443828 -17.21484375 2.83984375 C-12.29418086 -1.33526415 -6.00530456 -2.53944821 0 0 Z " fill="#FF8567" transform="translate(77.15234375,25.91015625)"/>
<path d="M0 0 C4.86129064 2.89625595 7.6616343 5.54146188 9.2421875 11.03125 C9.67524495 13.37457197 9.81630751 15.55964697 9.59375 17.93359375 C7.19315183 19.13389283 5.70014351 19.04819118 3.0234375 19.03125 C2.12753906 19.02802734 1.23164063 19.02480469 0.30859375 19.02148438 C-0.62855469 19.01310547 -1.56570312 19.00472656 -2.53125 18.99609375 C-3.47613281 18.99158203 -4.42101562 18.98707031 -5.39453125 18.98242188 C-7.73183387 18.97061732 -10.06901061 18.95415134 -12.40625 18.93359375 C-11.74625 20.25359375 -11.08625 21.57359375 -10.40625 22.93359375 C-6.43759148 23.0020189 -2.98647833 23.0540185 0.90625 22.24609375 C3.59375 21.93359375 3.59375 21.93359375 5.53125 23.12109375 C6.59375 24.93359375 6.59375 24.93359375 6.65625 26.93359375 C4.90626433 30.22768442 3.12280022 30.73730554 -0.40625 31.93359375 C-5.53681952 32.72512621 -10.25039192 33.14372164 -14.890625 30.5390625 C-19.4099448 26.75371982 -21.90187838 23.56506943 -22.71875 17.68359375 C-23.07672685 12.7912434 -22.64004685 9.55229242 -19.78125 5.49609375 C-14.49803432 -0.61416737 -7.67417547 -3.40105504 0 0 Z " fill="#FF8669" transform="translate(223.40625,26.06640625)"/>
<path d="M0 0 C4.39593393 1.9944515 7.26672667 4.12749985 9.921875 8.26953125 C11.08648926 11.76337404 11.05755819 14.60608514 10.921875 18.26953125 C9.921875 19.26953125 9.921875 19.26953125 7.88061523 19.38305664 C7.00606689 19.37781982 6.13151855 19.37258301 5.23046875 19.3671875 C4.28623047 19.36396484 3.34199219 19.36074219 2.36914062 19.35742188 C1.37591797 19.34904297 0.38269531 19.34066406 -0.640625 19.33203125 C-1.63771484 19.32751953 -2.63480469 19.32300781 -3.66210938 19.31835938 C-6.13417349 19.30653132 -8.60612018 19.29004974 -11.078125 19.26953125 C-10.748125 20.58953125 -10.418125 21.90953125 -10.078125 23.26953125 C-3.56077018 23.4670446 -3.56077018 23.4670446 2.859375 22.58203125 C4.921875 22.26953125 4.921875 22.26953125 6.796875 23.45703125 C7.921875 25.26953125 7.921875 25.26953125 7.984375 27.26953125 C6.25114285 30.53208588 4.39692685 31.07123751 0.921875 32.26953125 C-4.29682774 32.91219049 -8.60988859 32.92208077 -13.453125 30.76953125 C-17.98396214 26.45444826 -21.30349335 22.19694031 -21.703125 15.76953125 C-21.37990042 10.71150336 -19.43393442 7.01417501 -16.078125 3.26953125 C-11.24463334 -0.80621587 -6.0637369 -2.13142632 0 0 Z " fill="#FF8669" transform="translate(279.078125,25.73046875)"/>
<path d="M0 0 C1.11375 0.7425 1.11375 0.7425 2.25 1.5 C1.62224433 2.85208914 0.94580267 4.18163705 0.25 5.5 C-0.2759375 6.6446875 -0.2759375 6.6446875 -0.8125 7.8125 C-2.75 9.5 -2.75 9.5 -4.76953125 9.421875 C-6.35561547 9.17988537 -7.94027538 8.92839118 -9.5234375 8.66796875 C-12.6804228 8.42981021 -14.34453049 9.54555603 -16.75 11.5 C-18.40766798 13.15766798 -17.96049503 15.10346405 -18 17.375 C-18.02578125 18.25929688 -18.0515625 19.14359375 -18.078125 20.0546875 C-17.94144868 22.52663451 -17.94144868 22.52663451 -16.4765625 24.2734375 C-12.80456321 26.88205238 -8.03537379 26.68745034 -3.75 26.0625 C-3.09 25.876875 -2.43 25.69125 -1.75 25.5 C0.3125 28.3125 0.3125 28.3125 2.25 31.5 C1.25 34.5 1.25 34.5 -0.4140625 35.66796875 C-6.24027705 37.74319233 -13.33354892 37.20296759 -19.1875 35.5 C-23.29020576 32.29788819 -26.42171374 28.15657252 -28.75 23.5 C-29.51598157 17.28488371 -29.57835259 11.91995321 -26.1875 6.5 C-19.82456054 -1.63452354 -9.80420504 -4.86717067 0 0 Z " fill="#FF8669" transform="translate(47.75,21.5)"/>
<path d="M0 0 C0.94673584 0.00410889 1.89347168 0.00821777 2.86889648 0.01245117 C3.89563477 0.01438477 4.92237305 0.01631836 5.98022461 0.01831055 C7.05594727 0.03055664 8.13166992 0.04280273 9.23999023 0.05541992 C10.31958008 0.05606445 11.39916992 0.05670898 12.51147461 0.05737305 C20.53734426 0.10277394 20.53734426 0.10277394 21.67749023 1.24291992 C22.08764856 4.47593258 22.34575851 7.08077081 20.67456055 9.98706055 C19.28640236 11.73420762 17.83179067 13.36803821 16.30249023 14.99291992 C15.29368791 16.11181996 14.28584017 17.23158154 13.27905273 18.35229492 C12.42053711 19.30620117 11.56202148 20.26010742 10.67749023 21.24291992 C10.01749023 22.23291992 9.35749023 23.22291992 8.67749023 24.24291992 C12.96749023 24.57291992 17.25749023 24.90291992 21.67749023 25.24291992 C21.71990747 27.57586768 21.71841961 29.90994559 21.67749023 32.24291992 C20.67749023 33.24291992 20.67749023 33.24291992 18.26904297 33.35644531 C17.2269165 33.3512085 16.18479004 33.34597168 15.11108398 33.34057617 C13.98637695 33.33735352 12.86166992 33.33413086 11.70288086 33.33081055 C10.51887695 33.32243164 9.33487305 33.31405273 8.11499023 33.30541992 C6.92711914 33.3009082 5.73924805 33.29639648 4.51538086 33.29174805 C1.56936797 33.27991667 -1.37654657 33.26343279 -4.32250977 33.24291992 C-5.03132756 26.42334657 -5.03132756 26.42334657 -3.21362305 23.39624023 C-1.67779525 21.62494923 -0.07782436 19.98964014 1.61499023 18.36791992 C5.60717214 14.65135684 5.60717214 14.65135684 8.67749023 10.24291992 C7.90663086 10.19393555 7.13577148 10.14495117 6.34155273 10.09448242 C5.33866211 10.0197168 4.33577148 9.94495117 3.30249023 9.86791992 C1.80588867 9.76350586 1.80588867 9.76350586 0.27905273 9.65698242 C-2.32250977 9.24291992 -2.32250977 9.24291992 -4.32250977 7.24291992 C-4.57250977 4.74291992 -4.57250977 4.74291992 -4.32250977 2.24291992 C-2.32250977 0.24291992 -2.32250977 0.24291992 0 0 Z " fill="#FF8669" transform="translate(374.322509765625,24.757080078125)"/>
<path d="M0 0 C0 3.3 0 6.6 0 10 C1.98 10 3.96 10 6 10 C6.09765625 16.15234375 6.09765625 16.15234375 6 18 C5 19 5 19 2.4375 19.0625 C1.633125 19.041875 0.82875 19.02125 0 19 C0.00523682 19.63091553 0.01047363 20.26183105 0.01586914 20.91186523 C0.03657826 23.75373347 0.04964066 26.59558588 0.0625 29.4375 C0.07087891 30.43072266 0.07925781 31.42394531 0.08789062 32.44726562 C0.09111328 33.39150391 0.09433594 34.33574219 0.09765625 35.30859375 C0.10289307 36.18314209 0.10812988 37.05769043 0.11352539 37.95874023 C0 40 0 40 -1 41 C-3.97 41 -6.94 41 -10 41 C-10 33.41 -10 25.82 -10 18 C-11.32 18 -12.64 18 -14 18 C-14 15.36 -14 12.72 -14 10 C-12.68 10 -11.36 10 -10 10 C-10 7.69 -10 5.38 -10 3 C-6.27034861 0.96564469 -4.33094958 0 0 0 Z " fill="#FF8568" transform="translate(250,17)"/>
<path d="M0 0 C3.74817794 0.28288135 6.07469317 1.39982467 9.3125 3.25 C8.5625 9 8.5625 9 6.3125 11.25 C4.21875 11.19140625 4.21875 11.19140625 1.8125 10.8125 C-1.5555293 10.18725052 -1.5555293 10.18725052 -4.6875 11.25 C-4.71255615 11.88091553 -4.7376123 12.51183105 -4.76342773 13.16186523 C-4.87904137 16.00396825 -5.00192316 18.84571083 -5.125 21.6875 C-5.16431641 22.68072266 -5.20363281 23.67394531 -5.24414062 24.69726562 C-5.28603516 25.64150391 -5.32792969 26.58574219 -5.37109375 27.55859375 C-5.42608032 28.87041626 -5.42608032 28.87041626 -5.48217773 30.20874023 C-5.6875 32.25 -5.6875 32.25 -6.6875 33.25 C-9.6575 33.25 -12.6275 33.25 -15.6875 33.25 C-15.6875 22.69 -15.6875 12.13 -15.6875 1.25 C-13.3775 1.25 -11.0675 1.25 -8.6875 1.25 C-8.3575 2.57 -8.0275 3.89 -7.6875 5.25 C-7.0275 5.25 -6.3675 5.25 -5.6875 5.25 C-5.378125 4.610625 -5.06875 3.97125 -4.75 3.3125 C-3.19675241 0.29737232 -3.19675241 0.29737232 0 0 Z " fill="#FF8669" transform="translate(455.6875,24.75)"/>
<path d="M0 0 C0.721875 0.00257812 1.44375 0.00515625 2.1875 0.0078125 C2.909375 0.00523438 3.63125 0.00265625 4.375 0 C6.1875 0.1328125 6.1875 0.1328125 7.1875 1.1328125 C7.28860353 4.0781682 7.32719279 6.9995881 7.3203125 9.9453125 C7.32126923 10.82936768 7.32222595 11.71342285 7.32321167 12.62426758 C7.32389351 14.49723379 7.32203893 16.37020236 7.31787109 18.24316406 C7.31252289 21.12049638 7.31781593 23.99767258 7.32421875 26.875 C7.32355797 28.69010451 7.32227681 30.50520893 7.3203125 32.3203125 C7.32233673 33.18696533 7.32436096 34.05361816 7.32644653 34.9465332 C7.30245009 41.01786241 7.30245009 41.01786241 6.1875 42.1328125 C4.66821962 42.20461214 3.14582518 42.21673257 1.625 42.1953125 C0.79871094 42.18628906 -0.02757812 42.17726562 -0.87890625 42.16796875 C-1.51699219 42.15636719 -2.15507812 42.14476562 -2.8125 42.1328125 C-2.83714638 36.31209628 -2.8553343 30.49141016 -2.86743164 24.6706543 C-2.87247267 22.68887809 -2.87930538 20.70710561 -2.88793945 18.7253418 C-2.90001515 15.88329141 -2.90573045 13.04129003 -2.91015625 10.19921875 C-2.91531754 9.30755508 -2.92047882 8.41589142 -2.92579651 7.49720764 C-2.92599177 5.37540649 -2.8746003 3.2537047 -2.8125 1.1328125 C-1.8125 0.1328125 -1.8125 0.1328125 0 0 Z " fill="#FF8568" transform="translate(188.8125,15.8671875)"/>
<path d="M0 0 C2.3125 1 2.3125 1 4 3 C4.96988093 5.73222554 5.32575603 8.1131276 5 11 C2.9375 14 2.9375 14 0 16 C-3.65126535 16.67064058 -5.23686002 16.48198314 -8.375 14.5 C-10.65416433 10.99359333 -10.81753559 8.07099353 -10 4 C-7.29356525 -0.16374577 -4.81729865 -0.70252272 0 0 Z " fill="#FFFAF9" transform="translate(419,34)"/>
<path d="M0 0 C2.3125 1 2.3125 1 4 3 C4.96988093 5.73222554 5.32575603 8.1131276 5 11 C2.9375 14 2.9375 14 0 16 C-3.65126535 16.67064058 -5.23686002 16.48198314 -8.375 14.5 C-10.65416433 10.99359333 -10.81753559 8.07099353 -10 4 C-7.29356525 -0.16374577 -4.81729865 -0.70252272 0 0 Z " fill="#FFFAF9" transform="translate(350,34)"/>
<path d="M0 0 C0 0.66 0 1.32 0 2 C0.66 2 1.32 2 2 2 C3.60160199 5.20320397 3.48770192 8.52426522 3 12 C1.375 14.5 1.375 14.5 -1 16 C-4.61360931 16.60226822 -6.26222457 16.49849691 -9.3125 14.4375 C-11.58571574 11.15396616 -12.07003547 8.99202191 -12 5 C-8.59817433 0.00356855 -5.8719473 -0.57568111 0 0 Z " fill="#FFFAF8" transform="translate(168,34)"/>
<path d="M0 0 C1.875 1 1.875 1 3 3 C4.63876652 9.77356828 4.63876652 9.77356828 2.4375 14 C0 16 0 16 -3 16.5625 C-6 16 -6 16 -8.375 14.5 C-10.66553108 10.97610603 -10.67045833 8.08979584 -10 4 C-7.93207281 -0.86571104 -4.90619881 -0.61327485 0 0 Z " fill="#FFF9F7" transform="translate(74,34)"/>
<path d="M0 0 C7.39954511 -0.36391205 7.39954511 -0.36391205 10.0625 1.25 C11 3 11 3 10.75 5.125 C10 7 10 7 9 8 C7.48071962 8.07179964 5.95832518 8.08392007 4.4375 8.0625 C3.61121094 8.05347656 2.78492188 8.04445313 1.93359375 8.03515625 C1.29550781 8.02355469 0.65742188 8.01195312 0 8 C0 5.36 0 2.72 0 0 Z " fill="#FFFBFA" transform="translate(306,42)"/>
<path d="M0 0 C6.15234375 -0.09765625 6.15234375 -0.09765625 8 0 C9 1 9 1 9.125 3.5 C9 6 9 6 8 7 C5.32941149 7.14115161 2.67567762 7.04247107 0 7 C0 4.69 0 2.38 0 0 Z " fill="#FFFAF9" transform="translate(306,28)"/>
<path d="M0 0 C0.66 1.32 1.32 2.64 2 4 C-2.29 4 -6.58 4 -11 4 C-8.04811682 -1.90376636 -6.18497985 -1.43579889 0 0 Z " fill="#FFE9E4" transform="translate(279,34)"/>
<path d="M0 0 C1.8125 1.375 1.8125 1.375 3 3 C3 3.66 3 4.32 3 5 C-0.96 5 -4.92 5 -9 5 C-6.52613345 0.0522669 -5.34292881 -0.52126135 0 0 Z " fill="#FFEFEB" transform="translate(220,33)"/>
</svg>
